<?xml version="1.0" encoding="UTF-8"?>
<svg xmlns="http://www.w3.org/2000/svg" xmlns:xlink="http://www.w3.org/1999/xlink" width="188pt" height="188pt" viewBox="0 0 188 188" version="1.1">
<g id="surface1">
<path style=" stroke:none;fill-rule:nonzero;fill:rgb(82.352941%,41.176471%,11.764706%);fill-opacity:1;" d="M 47.941406 42.113281 C 44.117188 46.375 39.417969 54.082031 36.535156 60.847656 C 34.089844 66.738281 32.585938 67.992188 32.585938 64.234375 L 32.585938 62.039062 L 20.617188 62.039062 L 20.804688 65.296875 L 20.992188 68.621094 L 25.066406 69.621094 C 27.324219 70.25 29.890625 70.875 30.832031 71.0625 C 32.335938 71.441406 32.460938 71.566406 31.773438 73.257812 C 31.269531 74.699219 30.582031 75.199219 28.890625 75.511719 C 22.875 76.578125 15.351562 81.96875 12.21875 87.421875 C 10.777344 89.863281 10.714844 90.429688 10.402344 109.980469 C 9.902344 136.488281 9.902344 136.175781 11.15625 139.933594 C 12.785156 144.699219 16.042969 146.828125 21.433594 146.765625 C 25.378906 146.765625 31.394531 145.074219 34.277344 143.191406 C 35.53125 142.378906 43.300781 142.253906 94.5625 142.253906 C 159.738281 142.316406 158.734375 142.316406 165.503906 138.304688 C 167.945312 136.863281 169.324219 135.484375 170.328125 133.480469 L 171.832031 130.660156 L 171.519531 134.609375 C 170.703125 144.761719 164.4375 148.207031 153.535156 144.570312 C 148.144531 142.753906 146.890625 142.878906 151.277344 144.761719 C 155.164062 146.390625 160.992188 147.265625 163.746094 146.640625 C 166.691406 146.011719 169.511719 143.945312 170.515625 141.753906 L 171.269531 139.996094 L 174.964844 141.816406 C 176.96875 142.816406 178.601562 144.070312 178.601562 144.507812 C 178.601562 144.949219 177.347656 145.949219 175.78125 146.640625 C 173.085938 147.894531 171.332031 148.332031 163.875 149.773438 C 155.101562 151.464844 154.285156 151.527344 142.566406 152.59375 C 115.179688 155.101562 72.691406 155.039062 48.253906 152.59375 C 40.921875 151.839844 30.707031 150.589844 28.386719 150.148438 C 27.699219 149.960938 26.132812 149.710938 25.003906 149.523438 C 20.867188 148.832031 14.226562 146.640625 13.097656 145.636719 C 12.40625 145.011719 11.90625 144.195312 11.90625 143.695312 C 11.90625 143.257812 11.65625 142.878906 11.28125 142.878906 C 10.964844 142.878906 10.652344 143.570312 10.652344 144.382812 C 10.652344 148.707031 28.136719 152.53125 58.59375 154.910156 C 72.066406 155.914062 118.878906 155.914062 132.539062 154.847656 C 160.800781 152.71875 178.726562 149.019531 180.292969 144.949219 C 180.855469 143.507812 177.910156 141.125 174.464844 140.246094 C 171.832031 139.496094 171.707031 139.371094 172.019531 137.554688 C 172.394531 135.296875 172.457031 136.363281 171.957031 111.234375 C 171.519531 88.863281 171.644531 89.363281 166.820312 83.972656 C 163.746094 80.464844 158.671875 77.394531 154.222656 76.265625 C 151.402344 75.574219 150.714844 75.074219 150.023438 73.445312 C 149.210938 71.503906 149.273438 71.441406 150.902344 71.0625 C 151.839844 70.875 154.410156 70.1875 156.667969 69.621094 L 160.738281 68.496094 L 160.929688 65.296875 L 161.117188 62.039062 L 149.148438 62.039062 L 149.148438 64.234375 C 149.148438 67.179688 147.769531 67.117188 146.703125 64.046875 C 146.265625 62.792969 144.070312 57.964844 141.816406 53.328125 C 138.933594 47.5 136.863281 44.054688 134.796875 41.925781 L 131.851562 38.851562 L 50.886719 38.851562 Z M 61.476562 41.671875 C 59.972656 42.175781 58.53125 42.488281 58.34375 42.488281 C 58.15625 42.425781 56.777344 42.675781 55.335938 42.925781 C 52.890625 43.367188 49.507812 45.746094 49.507812 47.0625 C 49.507812 47.816406 40.921875 65.109375 39.980469 66.300781 C 39.292969 67.117188 39.292969 67.179688 40.105469 66.738281 C 40.859375 66.300781 40.859375 66.425781 40.042969 67.429688 C 38.914062 68.808594 36.972656 72.882812 36.972656 73.820312 C 36.972656 74.199219 37.601562 74.949219 38.414062 75.511719 C 39.855469 76.515625 46.875 78.898438 49.507812 79.210938 C 50.382812 79.335938 52.890625 79.835938 55.148438 80.402344 C 64.234375 82.53125 72.566406 83.910156 79.023438 84.347656 C 87.859375 84.976562 102.273438 84.789062 105.96875 84.035156 C 107.847656 83.660156 110.230469 83.347656 111.296875 83.347656 C 113.867188 83.347656 122.636719 81.90625 123.203125 81.277344 C 123.453125 81.027344 124.394531 80.839844 125.207031 80.839844 C 126.085938 80.839844 127.652344 80.589844 128.71875 80.277344 C 129.78125 79.898438 133.105469 78.960938 136.050781 78.082031 C 139.496094 77.015625 141.941406 75.890625 142.878906 74.886719 C 145.199219 72.441406 144.382812 69.621094 136.550781 53.390625 C 132.289062 44.679688 133.105469 45.308594 122.511719 42.613281 L 115.621094 40.859375 L 131.601562 40.859375 L 134.105469 43.804688 C 136.613281 46.625 144.320312 61.351562 145.136719 64.734375 C 145.699219 67.054688 148.144531 68.746094 149.398438 67.679688 C 149.898438 67.304688 150.398438 66.363281 150.523438 65.613281 C 150.714844 64.359375 151.152344 64.234375 154.976562 64.046875 C 159.109375 63.855469 159.171875 63.921875 159.171875 65.425781 C 159.171875 66.867188 158.734375 67.179688 154.660156 68.308594 C 148.707031 70.0625 148.207031 70.3125 148.144531 72.316406 C 148.082031 74.699219 150.023438 76.953125 153.03125 77.707031 C 156.542969 78.710938 161.929688 81.71875 164.75 84.285156 C 166.066406 85.539062 167.820312 87.984375 168.761719 89.800781 L 170.328125 93.058594 L 170.328125 130.035156 L 168.824219 132.726562 C 167.195312 135.484375 162.871094 138.304688 158.546875 139.308594 C 152.59375 140.6875 143.382812 140.9375 90.554688 140.9375 C 31.519531 140.9375 31.394531 140.9375 24.441406 138.429688 C 23.25 137.992188 21.242188 137.050781 20.054688 136.238281 C 17.734375 134.796875 13.222656 130.347656 14.039062 130.347656 C 14.289062 130.347656 14.039062 129.71875 13.535156 128.96875 C 12.660156 127.777344 12.535156 124.769531 12.535156 108.726562 L 12.535156 89.863281 L 14.664062 86.855469 C 17.484375 82.84375 22.308594 79.335938 26.757812 78.019531 C 31.207031 76.703125 33.089844 75.261719 33.589844 72.882812 C 33.964844 71.0625 33.023438 69.683594 31.207031 69.308594 C 29.640625 68.996094 26.632812 68.179688 24.628906 67.554688 C 23 67.117188 22.558594 66.613281 22.558594 65.425781 C 22.558594 63.984375 22.746094 63.921875 26.632812 63.921875 C 30.207031 63.921875 30.707031 64.046875 30.707031 65.046875 C 30.707031 66.867188 33.023438 68.683594 34.277344 67.929688 C 35.53125 67.179688 35.65625 66.929688 38.789062 60.160156 C 41.671875 54.082031 44.808594 48.253906 45.558594 47.6875 C 45.871094 47.5 47.3125 45.808594 48.816406 43.992188 L 51.511719 40.734375 L 57.839844 40.796875 C 64.234375 40.796875 64.234375 40.796875 61.476562 41.671875 Z M 66.238281 41.109375 C 66.050781 41.296875 65.488281 41.359375 65.046875 41.171875 C 64.546875 40.984375 64.734375 40.796875 65.425781 40.796875 C 66.113281 40.734375 66.488281 40.921875 66.238281 41.109375 Z M 115.933594 43.175781 C 119.882812 43.867188 124.957031 44.996094 127.214844 45.621094 L 131.285156 46.75 L 134.921875 53.957031 C 139.496094 63.042969 142.378906 70.5 142.128906 72.628906 C 141.941406 74.070312 141.3125 74.449219 137.238281 75.953125 C 130.847656 78.207031 120.882812 80.527344 111.859375 81.84375 C 103.777344 83.035156 81.78125 83.472656 76.328125 82.53125 C 73.382812 82.03125 73.320312 81.96875 73.320312 79.835938 C 73.320312 77.015625 72.003906 74.007812 70 72.128906 C 68.371094 70.6875 68.371094 70.6875 69.621094 69.371094 C 71.378906 67.492188 72.191406 63.984375 71.441406 61.476562 C 70 56.335938 66.675781 53.894531 61.351562 53.894531 C 57.464844 53.894531 54.769531 55.273438 52.390625 58.46875 C 50.507812 60.976562 50.570312 66.050781 52.453125 68.683594 L 53.832031 70.625 L 52.578125 71.816406 C 51.011719 73.195312 49.257812 76.390625 49.757812 76.890625 C 50.257812 77.394531 52.011719 75.828125 52.011719 74.886719 C 52.011719 74.386719 52.703125 73.507812 53.578125 72.820312 C 55.335938 71.378906 55.523438 70.375 54.269531 68.996094 C 52.953125 67.554688 52.136719 63.292969 52.765625 61.039062 C 53.453125 58.21875 57.152344 55.648438 60.785156 55.273438 C 63.230469 55.019531 64.171875 55.273438 66.113281 56.589844 C 69.9375 59.15625 71.316406 64.671875 68.933594 67.679688 C 67.304688 69.746094 67.367188 71.1875 69.246094 73.445312 C 70.125 74.449219 71 76.078125 71.1875 76.953125 C 71.378906 77.894531 71.816406 79.335938 72.128906 80.152344 C 72.441406 80.964844 72.628906 81.78125 72.441406 81.96875 C 71.878906 82.46875 57.339844 79.585938 49.128906 77.332031 C 44.679688 76.078125 40.421875 74.886719 39.605469 74.761719 C 38.789062 74.574219 38.226562 74.261719 38.351562 74.007812 C 38.476562 73.820312 41.671875 67.242188 45.496094 59.46875 C 51.199219 47.816406 52.703125 45.246094 53.957031 44.933594 C 56.902344 44.242188 68.683594 42.550781 74.574219 41.988281 C 84.851562 41.046875 107.660156 41.671875 115.933594 43.175781 Z M 16.480469 135.734375 C 19.929688 138.742188 24.628906 140.875 29.890625 141.878906 L 34.152344 142.628906 L 30.394531 144.070312 C 25.253906 146.074219 19.175781 146.453125 16.292969 144.949219 C 12.785156 143.128906 11.15625 139.433594 10.839844 132.601562 L 10.527344 126.898438 L 12.21875 130.160156 C 13.160156 131.976562 15.039062 134.484375 16.480469 135.734375 Z M 16.480469 135.734375 "/>
<path style=" stroke:none;fill-rule:nonzero;fill:rgb(82.352941%,41.176471%,11.764706%);fill-opacity:1;" d="M 22.683594 88.359375 C 18.425781 90.300781 15.605469 94.375 15.226562 99.390625 C 14.914062 102.585938 16.355469 106.660156 18.425781 108.726562 C 22.121094 112.488281 28.890625 111.484375 32.898438 106.660156 C 37.160156 101.582031 36.910156 94.125 32.398438 89.738281 C 29.890625 87.292969 26.195312 86.792969 22.683594 88.359375 Z M 30.144531 89.988281 C 32.148438 90.992188 34.402344 95.066406 34.464844 97.699219 C 34.464844 100.453125 32.960938 104.152344 31.019531 106.21875 C 25.757812 111.859375 18.109375 109.605469 17.109375 102.210938 C 16.605469 98.636719 17.359375 95.566406 19.238281 93.3125 C 22.746094 89.175781 26.445312 88.046875 30.144531 89.988281 Z M 30.144531 89.988281 "/>
<path style=" stroke:none;fill-rule:nonzero;fill:rgb(82.352941%,41.176471%,11.764706%);fill-opacity:1;" d="M 151.964844 87.984375 C 149.773438 88.988281 147.140625 91.742188 146.265625 94 C 143.695312 100.515625 149.019531 109.980469 155.726562 110.730469 C 159.425781 111.171875 161.117188 110.667969 163.371094 108.476562 C 165.816406 106.15625 166.945312 102.835938 166.566406 98.949219 C 165.816406 91.554688 157.605469 85.351562 151.964844 87.984375 Z M 158.421875 89.863281 C 159.363281 90.367188 160.867188 91.554688 161.804688 92.558594 C 166.503906 97.507812 165.628906 105.78125 160.175781 108.601562 C 158.171875 109.667969 157.480469 109.730469 155.476562 109.101562 C 152.15625 108.164062 150.085938 106.34375 148.582031 103.210938 C 144.632812 95.003906 151.214844 86.105469 158.421875 89.863281 Z M 158.421875 89.863281 "/>
<path style=" stroke:none;fill-rule:nonzero;fill:rgb(82.352941%,41.176471%,11.764706%);fill-opacity:1;" d="M 143.128906 123.453125 C 139.183594 125.019531 138.679688 130.597656 142.191406 133.292969 C 145.511719 135.863281 151.027344 132.539062 150.523438 128.277344 C 150.085938 124.644531 146.265625 122.136719 143.128906 123.453125 Z M 147.894531 125.960938 C 149.648438 127.714844 149.460938 129.96875 147.515625 131.539062 C 145.386719 133.230469 144.382812 133.167969 142.566406 131.285156 C 140.6875 129.46875 140.625 128.464844 142.316406 126.335938 C 143.882812 124.394531 146.136719 124.207031 147.894531 125.960938 Z M 147.894531 125.960938 "/>
<path style=" stroke:none;fill-rule:nonzero;fill:rgb(82.352941%,41.176471%,11.764706%);fill-opacity:1;" d="M 33.023438 125.710938 C 30.894531 128.152344 30.707031 130.347656 32.398438 132.664062 C 35.03125 136.113281 39.167969 136.050781 41.359375 132.539062 C 42.988281 129.90625 42.925781 128.71875 40.984375 126.148438 C 39.667969 124.394531 39.042969 124.078125 36.910156 124.078125 C 35.03125 124.078125 34.089844 124.457031 33.023438 125.710938 Z M 38.414062 126.023438 C 40.167969 126.960938 40.734375 127.777344 40.734375 129.53125 C 40.734375 131.410156 38.601562 133.480469 36.785156 133.480469 C 33.402344 133.480469 31.773438 128.59375 34.464844 126.460938 C 36.097656 125.144531 36.597656 125.082031 38.414062 126.023438 Z M 38.414062 126.023438 "/>
<path style=" stroke:none;fill-rule:nonzero;fill:rgb(82.352941%,41.176471%,11.764706%);fill-opacity:1;" d="M 60.535156 127.277344 C 56.714844 127.589844 56.023438 127.839844 54.707031 129.46875 C 52.453125 132.226562 52.890625 135.609375 55.898438 137.992188 L 58.15625 139.871094 L 91.367188 139.871094 C 122.199219 139.871094 124.769531 139.808594 126.523438 138.742188 C 130.535156 136.363281 130.660156 130.597656 126.773438 128.277344 C 124.894531 127.214844 122.828125 127.089844 94.816406 127.023438 C 78.332031 126.960938 62.917969 127.089844 60.535156 127.277344 Z M 127.152344 130.722656 C 128.84375 132.914062 128.78125 134.421875 126.898438 136.300781 L 125.394531 137.867188 L 91.617188 137.867188 C 60.285156 137.867188 57.714844 137.804688 56.460938 136.738281 C 54.707031 135.359375 54.519531 132.039062 56.085938 130.347656 C 57.214844 129.09375 58.03125 129.09375 91.554688 129.09375 L 125.898438 129.09375 Z M 127.152344 130.722656 "/>
<path style=" stroke:none;fill-rule:nonzero;fill:rgb(82.352941%,41.176471%,11.764706%);fill-opacity:1;" d="M 112.925781 54.269531 C 107.910156 56.839844 106.21875 63.355469 109.351562 67.929688 C 110.667969 69.875 110.730469 70.3125 109.980469 70.625 C 108.289062 71.253906 105.90625 76.078125 105.90625 78.898438 C 105.90625 82.46875 106.910156 81.65625 107.785156 77.394531 C 108.164062 75.511719 108.976562 73.570312 109.542969 73.132812 C 111.734375 71.503906 112.046875 70.0625 110.730469 67.804688 C 110.042969 66.675781 109.414062 64.921875 109.289062 64.046875 C 109.101562 62.226562 110.230469 57.652344 110.921875 57.652344 C 111.109375 57.652344 111.921875 57.089844 112.675781 56.335938 C 113.675781 55.398438 114.992188 55.085938 117.375 55.019531 C 121.132812 54.957031 122.011719 55.148438 123.828125 56.398438 C 127.152344 58.71875 127.902344 64.796875 125.269531 67.617188 C 123.765625 69.183594 123.765625 69.371094 125.519531 72.003906 C 126.335938 73.257812 127.527344 75.074219 128.214844 76.140625 C 129.09375 77.582031 129.40625 77.769531 129.59375 76.953125 C 129.84375 75.636719 128.402344 72.757812 126.710938 71.1875 L 125.394531 70.0625 L 126.710938 68.308594 C 128.65625 65.613281 128.90625 61.414062 127.277344 58.46875 C 125.207031 54.894531 123.140625 53.644531 118.753906 53.453125 C 116.121094 53.265625 114.367188 53.515625 112.925781 54.269531 Z M 112.925781 54.269531 "/>
<path style=" stroke:none;fill-rule:nonzero;fill:rgb(82.352941%,41.176471%,11.764706%);fill-opacity:1;" d="M 84.601562 55.085938 C 83.410156 55.710938 81.90625 56.902344 81.277344 57.777344 C 78.835938 61.039062 78.898438 66.613281 81.339844 69.121094 C 82.59375 70.3125 82.59375 70.375 80.589844 72.378906 C 78.269531 74.699219 76.640625 79.585938 77.644531 81.339844 C 78.082031 82.15625 78.332031 81.84375 78.648438 79.898438 C 79.210938 77.015625 80.339844 74.511719 81.90625 73.007812 C 83.410156 71.441406 83.472656 70.1875 82.09375 67.992188 C 80.527344 65.488281 80.714844 60.410156 82.40625 58.40625 C 87.355469 52.578125 97.320312 54.957031 98.636719 62.226562 C 98.949219 64.171875 98.011719 67.492188 96.695312 69.058594 C 95.628906 70.25 96.066406 72.378906 97.445312 72.945312 C 97.949219 73.132812 98.386719 73.695312 98.386719 74.199219 C 98.386719 74.699219 98.699219 75.199219 99.011719 75.324219 C 99.390625 75.449219 99.828125 76.640625 100.015625 78.019531 C 100.578125 82.03125 100.894531 82.59375 101.582031 81.339844 C 102.460938 79.710938 101.019531 74.824219 98.949219 72.628906 L 97.195312 70.6875 L 98.574219 68.808594 C 100.453125 66.238281 100.515625 60.976562 98.636719 58.46875 C 95.316406 53.957031 89.363281 52.515625 84.601562 55.085938 Z M 84.601562 55.085938 "/>
</g>
</svg>
