<?xml version="1.0" standalone="no"?>
<!DOCTYPE svg PUBLIC "-//W3C//DTD SVG 20010904//EN"
 "http://www.w3.org/TR/2001/REC-SVG-20010904/DTD/svg10.dtd">
<svg version="1.0" xmlns="http://www.w3.org/2000/svg"
 width="128.000000pt" height="128.000000pt" viewBox="0 0 128.000000 128.000000"
 preserveAspectRatio="xMidYMid meet">
<metadata>
Created by potrace 1.15, written by Peter Selinger 2001-2017
</metadata>
<g transform="translate(0.000000,128.000000) scale(0.100000,-0.100000)"
fill="#000000" stroke="none">
<path d="M317 979 c-19 -22 -46 -65 -59 -95 -23 -53 -38 -69 -38 -39 0 11 -11
15 -40 15 -36 0 -40 -3 -40 -25 0 -20 6 -25 35 -31 51 -9 52 -22 3 -43 -24
-10 -58 -35 -76 -55 l-32 -37 0 -134 0 -134 35 -35 c19 -19 53 -40 74 -46 55
-15 847 -15 902 0 23 6 52 22 65 35 23 23 24 30 24 168 l0 144 -32 37 c-18 20
-51 43 -73 51 -53 17 -56 39 -8 51 28 7 38 14 38 29 0 16 -8 21 -38 23 -27 2
-39 -1 -44 -13 -4 -12 -15 3 -39 54 -18 39 -44 82 -58 96 l-25 25 -270 0 -269
0 -35 -41z m438 12 c134 -20 138 -22 179 -111 20 -43 36 -84 36 -89 0 -32
-194 -71 -355 -71 -104 0 -115 2 -115 18 0 10 -7 27 -15 39 -12 18 -13 27 -3
48 26 57 -65 112 -114 68 -16 -14 -19 -26 -15 -57 7 -49 -6 -76 -36 -76 -53 1
-53 13 -7 114 32 71 49 98 65 102 83 21 285 29 380 15z m110 -621 l0 -25 -236
-3 c-248 -2 -269 1 -253 42 6 15 31 16 248 14 l241 -3 0 -25z"/>
</g>
</svg>
